<svg preserveAspectRatio="none" overflow="visible" style="display: block;" width="19.7133" height="19.898" viewBox="0 0 19.7133 19.898" fill="none" xmlns="http://www.w3.org/2000/svg">
<g id="Group">
<path id="Vector" d="M9.86985 19.898C7.12531 19.898 4.75022 18.9216 2.85015 16.9687C0.950083 15.0423 4.35085e-05 12.6672 4.35085e-05 9.92262C4.35085e-05 7.20447 0.976468 4.82938 2.90293 2.90292C4.80299 0.976462 7.1517 3.74641e-05 9.86985 3.74641e-05C12.3769 3.74641e-05 14.5672 0.844512 16.3881 2.53346C18.209 4.19602 19.2646 6.25443 19.5813 8.6823C19.6869 9.15731 19.7133 9.57955 19.7133 9.9754C19.7133 10.3185 19.6605 10.6879 19.5813 11.0046L19.423 11.638H4.09047C4.35437 12.8255 4.93495 13.8019 5.8322 14.62C6.96696 15.6228 8.26007 16.1242 9.86985 16.1242C10.9518 16.1242 11.981 15.8603 12.9311 15.3589C13.8811 14.8575 14.62 14.1714 15.2006 13.3005L15.5173 12.8519L19.3174 13.5908L18.8424 14.5672C18.0507 16.177 16.8104 17.4701 15.1742 18.4465C13.538 19.423 11.7435 19.898 9.86985 19.898ZM4.14325 8.07533H15.4909C15.227 6.99335 14.6728 6.04331 13.8019 5.25162C12.72 4.2488 11.4532 3.77379 9.89623 3.77379C8.31284 3.77379 6.99336 4.2488 5.88498 5.27801C4.98773 6.04331 4.40715 6.96696 4.14325 8.07533Z" fill="var(--fill-0, #5BB2AC)"/>
</g>
</svg>
