<svg preserveAspectRatio="none" overflow="visible" style="display: block;" width="16.6667" height="16.6667" viewBox="0 0 16.6667 16.6667" fill="none" xmlns="http://www.w3.org/2000/svg">
<g id="Vector">
<path fill-rule="evenodd" clip-rule="evenodd" d="M4.11544 0.50747C4.92428 0.172438 5.79119 0 6.66667 0C7.54215 0 8.40905 0.172438 9.21789 0.50747C10.0267 0.842501 10.7617 1.33356 11.3807 1.95262C11.9998 2.57168 12.4908 3.30661 12.8259 4.11544C13.1609 4.92428 13.3333 5.79119 13.3333 6.66667C13.3333 7.54215 13.1609 8.40905 12.8259 9.21789C12.4908 10.0267 11.9998 10.7617 11.3807 11.3807C10.7617 11.9998 10.0267 12.4908 9.21789 12.8259C8.40905 13.1609 7.54215 13.3333 6.66667 13.3333C5.79119 13.3333 4.92428 13.1609 4.11544 12.8259C3.30661 12.4908 2.57168 11.9998 1.95262 11.3807C1.33356 10.7617 0.842501 10.0267 0.50747 9.21789C0.172439 8.40905 0 7.54215 0 6.66667C0 5.79119 0.172439 4.92428 0.50747 4.11544C0.842501 3.30661 1.33356 2.57168 1.95262 1.95262C2.57168 1.33356 3.30661 0.842501 4.11544 0.50747ZM6.66667 1.66667C6.01006 1.66667 5.35988 1.796 4.75325 2.04727C4.14662 2.29854 3.59543 2.66684 3.13113 3.13113C2.66684 3.59543 2.29854 4.14662 2.04727 4.75325C1.796 5.35988 1.66667 6.01006 1.66667 6.66667C1.66667 7.32328 1.796 7.97346 2.04727 8.58008C2.29854 9.18671 2.66684 9.73791 3.13113 10.2022C3.59543 10.6665 4.14662 11.0348 4.75325 11.2861C5.35988 11.5373 6.01006 11.6667 6.66667 11.6667C7.32328 11.6667 7.97346 11.5373 8.58008 11.2861C9.18671 11.0348 9.73791 10.6665 10.2022 10.2022C10.6665 9.73791 11.0348 9.18671 11.2861 8.58008C11.5373 7.97346 11.6667 7.32328 11.6667 6.66667C11.6667 6.01006 11.5373 5.35988 11.2861 4.75325C11.0348 4.14662 10.6665 3.59543 10.2022 3.13113C9.73791 2.66684 9.18671 2.29854 8.58008 2.04727C7.97346 1.796 7.32328 1.66667 6.66667 1.66667Z" fill="var(--fill-0, #FFFCFB)"/>
<path fill-rule="evenodd" clip-rule="evenodd" d="M10.2441 10.2441C10.5695 9.91864 11.0972 9.91864 11.4226 10.2441L16.4226 15.2441C16.748 15.5695 16.748 16.0972 16.4226 16.4226C16.0972 16.748 15.5695 16.748 15.2441 16.4226L10.2441 11.4226C9.91864 11.0972 9.91864 10.5695 10.2441 10.2441Z" fill="var(--fill-0, #FFFCFB)"/>
</g>
</svg>
