<svg preserveAspectRatio="none" overflow="visible" style="display: block;" width="15.6308" height="14.0085" viewBox="0 0 15.6308 14.0085" fill="none" xmlns="http://www.w3.org/2000/svg">
<g id="Group">
<path id="Vector" opacity="0.954" fill-rule="evenodd" clip-rule="evenodd" d="M7.77258 0.0173907C8.28082 -0.0346148 8.76589 0.030004 9.22779 0.211441C11.4797 4.71439 13.614 9.24217 15.6307 13.795C14.5799 14.016 13.5127 14.0484 12.4293 13.892C11.9276 13.1476 11.4748 12.3714 11.0711 11.5634C8.87208 11.434 6.67307 11.434 4.47409 11.5634C4.16318 12.347 3.77512 13.0908 3.30991 13.795C2.22248 13.9801 1.123 14.0449 0.0114248 13.989C-0.0196586 13.6593 0.012686 13.3359 0.108439 13.0188C2.03681 9.22626 3.91243 5.41006 5.73528 1.5698C6.28927 0.849674 6.96837 0.332335 7.77258 0.0173907ZM7.77258 4.2865C8.44972 5.80359 9.16115 7.32378 9.9069 8.84669C8.48402 8.97612 7.06113 8.97612 5.63826 8.84669C6.48339 7.38297 7.19484 5.86297 7.77258 4.2865Z" fill="var(--fill-0, #607281)"/>
</g>
</svg>
