<svg preserveAspectRatio="none" overflow="visible" style="display: block;" width="23.2836" height="13.9915" viewBox="0 0 23.2836 13.9915" fill="none" xmlns="http://www.w3.org/2000/svg">
<g id="Group">
<path id="Vector" opacity="0.938" fill-rule="evenodd" clip-rule="evenodd" d="M0.000132395 0.0232513C0.786919 -0.0396211 1.56303 0.0249977 2.32848 0.217302C4.06193 3.42515 5.58176 6.72401 6.88816 10.1139C8.17166 6.77039 9.56226 3.47153 11.0598 0.217302C11.3832 -0.0413676 11.7065 -0.0413676 12.0299 0.217302C13.5534 3.46299 14.944 6.76185 16.2015 10.1139C17.6055 6.69141 19.1902 3.36014 20.9552 0.120277C21.7393 -0.0402033 22.5154 -0.00779683 23.2836 0.217302C21.0944 4.82251 18.8308 9.3827 16.4926 13.8979C16.2124 14.0494 15.9538 14.017 15.7165 13.8008C14.2725 10.5893 12.8819 7.35506 11.5448 4.09831C10.2078 7.35506 8.81719 10.5893 7.37323 13.8008C7.08102 14.0428 6.78998 14.0428 6.5001 13.8008C4.22724 9.25482 2.06072 4.66242 0.000132395 0.0232513Z" fill="var(--fill-0, #5F7281)"/>
</g>
</svg>
