<svg preserveAspectRatio="none" overflow="visible" style="display: block;" width="21.1812" height="29.8091" viewBox="0 0 21.1812 29.8091" fill="none" xmlns="http://www.w3.org/2000/svg">
<g id="Group">
<path id="Vector" opacity="0.977" fill-rule="evenodd" clip-rule="evenodd" d="M0.00833811 0C1.69445 0 3.38042 0 5.06653 0C5.0029 7.05967 5.06946 14.1143 5.26619 21.1638C6.03917 23.7972 7.81406 25.1282 10.5906 25.157C14.0729 25.0024 15.9364 23.1834 16.1812 19.6996C16.2478 13.1333 16.27 6.5667 16.2478 0C17.8894 0 19.5312 0 21.1729 0C21.1951 7.01037 21.1729 14.0206 21.1063 21.0307C20.4086 25.8992 17.6353 28.7609 12.7869 29.616C9.11162 30.228 5.82819 29.3851 2.93676 27.087C1.21245 25.2898 0.258585 23.1379 0.0748932 20.6314C0.00833811 13.7543 -0.0138913 6.87726 0.00833811 0Z" fill="var(--fill-0, #888A8C)"/>
</g>
</svg>
