<svg preserveAspectRatio="none" overflow="visible" style="display: block;" width="24.2706" height="29.0353" viewBox="0 0 24.2706 29.0353" fill="none" xmlns="http://www.w3.org/2000/svg">
<g id="Group">
<path id="Vector" opacity="0.98" fill-rule="evenodd" clip-rule="evenodd" d="M0.000125176 0.00831536C3.46099 -0.01386 6.92186 0.00831536 10.3827 0.0748682C15.6219 0.285109 19.6366 2.57009 22.4292 6.92981C24.1037 10.2558 24.6362 13.7609 24.0265 17.4452C22.6768 23.8972 18.75 27.6907 12.2463 28.8257C10.8313 28.9955 9.41235 29.0621 7.98674 29.0253C7.98674 27.4724 7.98674 25.9196 7.98674 24.3666C15.964 24.3987 19.6246 20.4499 18.9683 12.5202C18.1391 8.03219 15.4542 5.48099 10.9152 4.86667C8.96377 4.80013 7.01104 4.77794 5.05832 4.80012C5.05832 12.8752 5.05832 20.9502 5.05832 29.0253C3.37181 29.0253 1.68663 29.0253 0.000125176 29.0253C0.000125176 19.353 0.000125176 9.68066 0.000125176 0.00831536Z" fill="var(--fill-0, #888A8C)"/>
</g>
</svg>
