<svg preserveAspectRatio="none" overflow="visible" style="display: block;" width="48" height="48" viewBox="0 0 48 48" fill="none" xmlns="http://www.w3.org/2000/svg">
<g id="Brands">
<g id="Vector">
</g>
<path id="Vector_2" d="M6 41.9995L9.3 34.3995C6.77533 30.8156 5.64533 26.4335 6.12209 22.0757C6.59884 17.7178 8.64957 13.6837 11.8894 10.7305C15.1293 7.77725 19.3355 6.10788 23.7188 6.03565C28.102 5.96342 32.361 7.49331 35.6964 10.3382C39.0318 13.1831 41.2143 17.1474 41.8344 21.4872C42.4544 25.827 41.4694 30.2439 39.0642 33.909C36.659 37.5741 32.9989 40.2355 28.7708 41.3937C24.5427 42.5518 20.0373 42.1272 16.1 40.1995L6 41.9995Z" stroke="var(--stroke-0, black)" stroke-width="2.5" stroke-linecap="round" stroke-linejoin="round"/>
<path id="Vector_3" d="M18 20C18 20.2652 18.1054 20.5196 18.2929 20.7071C18.4804 20.8946 18.7348 21 19 21C19.2652 21 19.5196 20.8946 19.7071 20.7071C19.8946 20.5196 20 20.2652 20 20V18C20 17.7348 19.8946 17.4804 19.7071 17.2929C19.5196 17.1054 19.2652 17 19 17C18.7348 17 18.4804 17.1054 18.2929 17.2929C18.1054 17.4804 18 17.7348 18 18V20ZM18 20C18 22.6522 19.0536 25.1957 20.9289 27.0711C22.8043 28.9464 25.3478 30 28 30M28 30H30C30.2652 30 30.5196 29.8946 30.7071 29.7071C30.8946 29.5196 31 29.2652 31 29C31 28.7348 30.8946 28.4804 30.7071 28.2929C30.5196 28.1054 30.2652 28 30 28H28C27.7348 28 27.4804 28.1054 27.2929 28.2929C27.1054 28.4804 27 28.7348 27 29C27 29.2652 27.1054 29.5196 27.2929 29.7071C27.4804 29.8946 27.7348 30 28 30Z" stroke="var(--stroke-0, black)" stroke-width="2.5" stroke-linecap="round" stroke-linejoin="round"/>
</g>
</svg>
